<?xml version="1.0" encoding="UTF-8" standalone="no"?>
<!-- Created with Inkscape (http://www.inkscape.org/) -->

<svg
   version="1.1"
   id="svg96"
   width="263.54108"
   height="55.578121"
   viewBox="0 0 263.54107 55.578121"
   sodipodi:docname="NewberryLogo_3.svg"
   inkscape:export-filename="NewberryLogo_1.svg"
   inkscape:export-xdpi="96"
   inkscape:export-ydpi="96"
   inkscape:version="1.2.1 (9c6d41e4, 2022-07-14)"
   xmlns:inkscape="http://www.inkscape.org/namespaces/inkscape"
   xmlns:sodipodi="http://sodipodi.sourceforge.net/DTD/sodipodi-0.dtd"
   xmlns="http://www.w3.org/2000/svg"
   xmlns:svg="http://www.w3.org/2000/svg">
  <defs
     id="defs100" />
  <sodipodi:namedview
     id="namedview98"
     pagecolor="#ffffff"
     bordercolor="#000000"
     borderopacity="0.25"
     inkscape:showpageshadow="2"
     inkscape:pageopacity="0.0"
     inkscape:pagecheckerboard="0"
     inkscape:deskcolor="#d1d1d1"
     showgrid="false"
     inkscape:zoom="4.2479999"
     inkscape:cx="88.394541"
     inkscape:cy="27.895481"
     inkscape:window-width="1792"
     inkscape:window-height="1067"
     inkscape:window-x="0"
     inkscape:window-y="25"
     inkscape:window-maximized="1"
     inkscape:current-layer="g102" />
  <g
     inkscape:groupmode="layer"
     inkscape:label="Image"
     id="g102"
     transform="translate(-0.27287251,-0.28531668)">
    <path
       id="path231-2"
       style="fill:#000000;fill-opacity:1;stroke-width:0.444444"
       d="M 34.415451,0.28531669 27.454514,4.5060197 20.495529,8.7267227 20.272873,5.6681287 20.050217,2.6095357 10.161545,8.1896137 0.27287252,13.771645 V 34.81852 55.863437 h 10.00000048 10 V 34.197426 12.531411 l 2.111328,-1.216797 c 1.16086,-0.669449 2.640347,-1.5542383 3.28711,-1.9648443 1.155696,-0.733711 1.233214,-0.710808 4.554687,1.3593753 l 3.380859,2.107422 v 21.523438 21.523432 l 8.111328,-0.0195 8.109376,-0.0215 4.445312,-4.19142 4.445312,-4.19336 -2.550781,-0.008 -2.550781,-0.01 L 53.499435,29.999731 53.384201,12.579809 43.899826,6.4313707 Z" />
    <text
       xml:space="preserve"
       style="font-style:normal;font-variant:normal;font-weight:bold;font-stretch:normal;font-size:21.3333px;font-family:'Styrene B Web';-inkscape-font-specification:'Styrene B Web Bold';white-space:pre;inline-size:208.543;display:inline;fill:#000000;fill-opacity:1"
       x="77.995346"
       y="9.8382692"
       id="text1"
       transform="translate(-14.779014,26.491328)"><tspan
         x="77.995346"
         y="9.8382692"
         id="tspan2">ZO</tspan></text>
  </g>
</svg>
